# Blender v2.78 (sub 0) OBJ File: 'container.blend'
# www.blender.org
mtllib container3.mtl
o Cube
v 1.000000 0.000000 -2.110158
v 1.000000 0.000000 2.110158
v -1.000000 0.000000 2.110157
v -1.000000 0.000000 -2.110159
v 1.000000 2.000000 -2.110157
v 0.999999 2.000000 2.110159
v -1.000000 2.000000 2.110157
v -1.000000 2.000000 -2.110158
vt 0.6010 0.4009
vt 0.8016 0.4025
vt 0.8025 0.5945
vt 0.5992 0.5904
vt 0.6018 0.5932
vt 0.6036 0.4037
vt 0.8042 0.4053
vt 0.8051 0.5973
vt 0.8042 0.4022
vt 0.8051 0.5942
vt 0.6018 0.5901
vt 0.6036 0.4006
vt -0.0005 0.7954
vt -0.0025 0.5985
vt 0.2061 0.5990
vt 0.2082 0.7959
vt 0.8025 0.4022
vt 0.8033 0.5942
vt 0.6001 0.5901
vt 0.6018 0.4006
vt -0.0005 0.7976
vt -0.0025 0.6007
vt 0.2061 0.6011
vt 0.2082 0.7981
vn 0.5773 -0.5773 -0.5773
vn 0.5773 -0.5773 0.5773
vn -0.5773 -0.5773 0.5773
vn -0.5773 -0.5773 -0.5773
vn 0.5773 0.5773 -0.5773
vn -0.5773 0.5773 -0.5773
vn -0.5773 0.5773 0.5773
vn 0.5773 0.5773 0.5773
usemtl Material
s 1
f 1/1/1 2/2/2 3/3/3 4/4/4
f 5/5/5 8/6/6 7/7/7 6/8/8
f 1/9/1 5/10/5 6/11/8 2/12/2
f 2/13/2 6/14/8 7/15/7 3/16/3
f 3/17/3 7/18/7 8/19/6 4/20/4
f 5/21/5 1/22/1 4/23/4 8/24/6
